<?xml version="1.0" encoding="UTF-8"?>
<!DOCTYPE svg PUBLIC "-//W3C//DTD SVG 1.1//EN" "http://www.w3.org/Graphics/SVG/1.1/DTD/svg11.dtd">
<!-- Creator: CorelDRAW (OEM Version) -->
<svg xmlns="http://www.w3.org/2000/svg" xml:space="preserve" width="143.958mm" height="28.34mm" version="1.1" style="shape-rendering:geometricPrecision; text-rendering:geometricPrecision; image-rendering:optimizeQuality; fill-rule:evenodd; clip-rule:evenodd"
viewBox="0 0 14395.76 2834"
 xmlns:xlink="http://www.w3.org/1999/xlink"
 xmlns:xodm="http://www.corel.com/coreldraw/odm/2003">
 <defs>
  <style type="text/css">
   <![CDATA[
    .fil0 {fill:#FBBF24}
   ]]>
  </style>
 </defs>
 <g id="Layer_x0020_1">
  <metadata id="CorelCorpID_0Corel-Layer"/>
  <g id="_2274903115120">
   <path class="fil0" d="M12288.75 1846.34c81.45,-84.53 275.43,-296.78 354.09,-477.77 0,0 -232.75,5.46 -261.61,-142.92 0,0 223.61,-160.77 446.89,-218.48 0,0 379.21,-395.73 461.65,-445.19 82.44,-49.46 170.03,-61.83 264.51,-57.71l504.57 -465.79c0,0 271.03,210.22 49.49,643.05 0,0 150.81,-28.87 233.93,-86.57 0,0 34.1,60.34 28.65,101.33 -5.48,41 40.3,32.79 -6.33,100.42 -46.63,67.64 -313.04,436.56 -342.57,520.58 -29.55,84.02 -58.88,584.27 -122.78,749.15 -224.26,578.55 -650.99,745.04 -1249.63,723.59l-360.86 -943.69zm1256.78 -1169.73c0,0 -60.97,163.21 -193.78,148.57 41,-45.56 30.95,-153.77 193.78,-148.57z"/>
   <path class="fil0" d="M6364.8 1253.91l955.9 0 0 538.46c0,207.75 -41.42,388.32 -124.91,543.64 -83.48,154.68 -199.98,274.41 -350.13,359.84 -149.5,85.43 -325.54,128.15 -528.11,128.15 -201.92,0 -379.9,-40.13 -532.64,-120.38 -152.74,-80.25 -271.17,-193.51 -355.31,-339.78 -84.13,-145.62 -126.2,-315.83 -126.2,-510.63l0 -813.53c0,-207.1 42.07,-387.66 126.2,-542.34 84.14,-154.04 200.63,-273.77 350.78,-359.2 149.5,-85.43 324.89,-128.14 526.17,-128.14 166.33,0 318.42,34.3 455.62,102.26 137.21,68.6 252.41,163.74 346.25,286.7 93.2,122.32 156.62,266 189.63,430.39l0 0 -561.12 0 0 0c-27.83,-89.96 -82.84,-159.21 -165.03,-207.75 -82.19,-48.54 -170.86,-73.14 -265.35,-73.14 -141.74,0 -254.35,45.31 -338.48,134.62 -84.14,89.96 -126.2,209.04 -126.2,356.6l0 813.53c0,131.38 43.36,236.22 130.08,314.53 86.08,78.31 201.93,117.79 345.6,117.79 140.44,0 253.06,-42.71 337.84,-128.14 84.78,-85.43 126.85,-204.52 126.85,-357.25l0 -45.31 -417.44 0 0 -500.92z"/>
   <path class="fil0" d="M8799.54 1253.91l955.9 0 0 538.46c0,207.75 -41.42,388.32 -124.91,543.64 -83.48,154.68 -199.98,274.41 -350.13,359.84 -149.5,85.43 -325.54,128.15 -528.11,128.15 -201.92,0 -379.9,-40.13 -532.64,-120.38 -152.74,-80.25 -271.17,-193.51 -355.31,-339.78 -84.13,-145.62 -126.2,-315.83 -126.2,-510.63l0 -813.53c0,-207.1 42.07,-387.66 126.2,-542.34 84.14,-154.04 200.63,-273.77 350.78,-359.2 149.5,-85.43 324.89,-128.14 526.17,-128.14 166.33,0 318.42,34.3 455.62,102.26 137.21,68.6 252.41,163.74 346.25,286.7 93.2,122.32 156.62,266 189.63,430.39l0 0 -561.12 0 0 0c-27.83,-89.96 -82.84,-159.21 -165.03,-207.75 -82.19,-48.54 -170.86,-73.14 -265.35,-73.14 -141.74,0 -254.35,45.31 -338.48,134.62 -84.14,89.96 -126.2,209.04 -126.2,356.6l0 813.53c0,131.38 43.36,236.22 130.08,314.53 86.08,78.31 201.93,117.79 345.6,117.79 140.44,0 253.06,-42.71 337.84,-128.14 84.78,-85.43 126.85,-204.52 126.85,-357.25l0 -45.31 -417.44 0 0 -500.92z"/>
   <polygon class="fil0" points="1957.41,837.2 1448.71,2488.1 989.85,2488.1 481.81,873.46 481.81,2795.52 10,2795.52 10,38.48 694.09,38.48 1219.61,1896.57 1744.48,38.48 2429.21,38.48 2429.21,2795.52 1957.41,2795.52 "/>
   <path class="fil0" d="M2732.74 2795.52l1054.28 -2757.04 329.42 0 1054.28 2757.04 -559.17 0 -154.99 -442.03 -1009.8 0 -154.84 442.03 -559.18 0zm1548.4 -942.31l-329.73 -940.38 -329.41 940.38 659.14 0z"/>
   <path class="fil0" d="M9926.3 2795.52l1054.28 -2757.04 329.42 0 1054.28 2757.04 -559.17 0 -154.99 -442.03 -1009.8 0 -154.84 442.03 -559.18 0zm1548.4 -942.31l-329.73 -940.38 -329.41 940.38 659.14 0z"/>
  </g>
 </g>
</svg>
