<?xml version="1.0" encoding="UTF-8" standalone="no"?><!DOCTYPE svg PUBLIC "-//W3C//DTD SVG 1.1//EN" "http://www.w3.org/Graphics/SVG/1.1/DTD/svg11.dtd"><svg width="100%" height="100%" viewBox="0 0 200 200" version="1.1" xmlns="http://www.w3.org/2000/svg" xmlns:xlink="http://www.w3.org/1999/xlink" xml:space="preserve" xmlns:serif="http://www.serif.com/" style="fill-rule:evenodd;clip-rule:evenodd;stroke-linejoin:round;stroke-miterlimit:2;"><g><circle cx="100" cy="100" r="91.745" style="fill:#fff;"/><g><path d="M131.219,30.89c-2.675,8.02 -11.252,-1.575 -5.92,-3.34c4.465,-1.478 5.763,2.82 5.92,3.34Zm-14.87,-6.32c5.754,5.369 -7.665,7.442 -6.359,0.957c0.659,-3.272 5.882,-1.151 6.359,-0.957Zm-19.264,-1.359c0.516,-0.167 5.626,-1.817 6.576,1.633c1.642,5.961 -11.577,4.014 -6.576,-1.633Zm-73.625,87.165c1.017,-4.821 5.833,-2.771 6.08,0.801c0.356,5.155 -5.689,6.232 -6.08,-0.801Zm15.369,-48.91c-1.786,6.568 -8.496,4.359 -5.948,-0.782c0.508,-1.025 4.466,-6.24 5.948,0.782Zm78.005,110.827c-0.894,6.547 -9.445,3.993 -7.533,-0.028c0.602,-1.267 2.969,-1.65 4.702,-2.046c2.776,-0.635 2.671,1.621 2.831,2.074Zm-89.161,-70.968c-7.151,4.169 -5.709,-9.982 -0.294,-6.711c0.447,0.27 2.189,3.75 0.294,6.711Zm143.79,-1.689c-0.024,-0.75 -0.67,-3.863 1.445,-5.011c0.18,-0.098 1.95,-0.667 3.023,0.365c3.599,3.459 -1.313,11.508 -4.468,4.646Zm-87.524,-75.146c0.469,-0.194 5.957,-2.465 6.075,1.829c0.159,5.796 -11.661,3.462 -6.075,-1.829Zm53.097,30.04c-0.335,2.821 -1.314,2.63 -4.037,1.71c-8.04,-2.715 -3.105,-7.501 -0.849,-6.038c1.549,1.004 0.949,1.672 2.575,2.522c1.351,0.706 1.387,0.624 2.311,1.806Zm-1.108,-16.646c-2.752,-5.076 2.533,-5.066 4.582,-3.661c4.793,3.287 0.047,8.07 -4.582,3.661Zm-40.401,135.925c0.519,-2.073 0.811,-2.287 3.882,-2.335c5.096,-0.079 3.921,5.692 -0.009,5.846c-4.509,0.177 -3.846,-2.912 -3.872,-3.512Zm-37.732,-137.562c0.145,-0.522 1.427,-5.133 5.854,-3.402c4.886,1.91 -3.709,10.646 -5.854,3.402Zm18.893,-6.893c-1.119,8.483 -9.339,2.993 -6.202,-0.66c0.96,-1.118 2.768,-1.581 3.701,-1.544c1.885,0.075 1.82,0.431 2.501,2.204Zm78.394,115.35c0.318,-0.365 4.548,-5.223 5.911,-1.311c1.715,4.923 -9.023,9.956 -5.911,1.311Zm-5.378,13.558c-0.469,0.191 -2.64,1.576 -3.823,0.434c-3.467,-3.344 4.694,-9.097 6.243,-4.743c0.641,1.803 -2.113,4.059 -2.419,4.309Zm-106.931,-109.976c2.229,-0.175 2.855,-0.493 3.311,1.679c0.565,2.689 -1.76,4.388 -1.844,4.458c-2.498,2.1 -8.604,-1.59 -1.467,-6.137Zm-5.09,87.283c-0.292,7.574 -8.613,0.901 -5.978,-2.78c0.136,-0.19 4.011,-3.118 5.978,2.78Zm37.814,33.027c0.879,2 2.066,2.48 0.174,3.615c-0.366,0.219 -5.242,1.256 -6.187,-2.176c-0.691,-2.511 -0.57,-4.422 3.99,-3.266c1.05,0.266 0.866,0.509 2.024,1.828Zm51.45,-2.883c5.751,1.272 2.562,5.463 0.806,6.022c-4.941,1.571 -7.307,-3.865 -0.806,-6.022Zm49.215,-54.564c-0.872,6.944 -7.105,4.1 -5.656,-0.76c0.37,-1.24 4.482,-5.342 5.656,0.76Zm-13.802,26.579c-0.154,-0.487 -1.657,-5.239 2.813,-5.731c5.266,-0.58 2.492,11.198 -2.813,5.731Zm-134.006,-17.313c0.116,-0.001 2.47,-0.568 3.439,1.6c1.352,3.024 0.468,4.064 0.243,4.328c-3.434,4.04 -8.545,-3.918 -3.682,-5.928Zm28.26,41.938c0.265,-3.234 1.56,-2.705 4.653,-1.787c3.293,0.977 3.017,4.638 1.327,5.341c-3.598,1.496 -5.743,-3.05 -5.98,-3.553Zm67.06,-117.457c5.382,6.29 -3.155,7.007 -5.023,2.772c-0.429,-0.972 0.045,-2.256 0.761,-2.855c1.489,-1.244 3.955,-0.064 4.262,0.083Zm-26.802,-1.7c-0.013,-0.557 -0.63,-2.901 1.709,-3.403c0.959,-0.206 3.559,-0.183 4.343,0.602c3.152,3.155 -3.418,8.22 -6.051,2.801Zm65.992,21.303c-0.343,-0.308 -3.716,-3.339 -1.059,-5.66c3.997,-3.492 9,8.549 1.059,5.66Zm9.887,61.161c-4.218,6.863 -8.134,-3.113 -3.101,-4.788c4.313,-1.436 3.188,4.34 3.101,4.788Zm2.462,-42.084c0.559,2.427 1.392,2.686 -0.228,4.571c-3.602,4.187 -8.004,-6.169 -2.215,-6.341c1.644,-0.049 1.425,0.473 2.443,1.77Zm-40.388,80.357c0.197,-0.463 2.03,-4.759 5.043,-3.751c5.772,1.931 -4.502,11.098 -5.043,3.751Zm31.765,-62.514c1.548,1.477 1.846,1.492 1.607,3.617c-0.571,5.066 -7.477,2.473 -5.78,-2.208c0.869,-2.396 3.844,-1.459 4.173,-1.409Zm-53.177,56.564c-5.47,4.041 -8.24,-3.17 -3.26,-4.598c3.858,-1.107 5.321,1.142 3.26,4.598Zm40.518,-108.573c1.578,-1.281 1.747,-1.836 3.449,-0.735c0.96,0.621 2.161,2.124 2.403,2.864c1.555,4.761 -7.967,4.949 -5.852,-2.129Zm-59.863,118.512c-1.615,0.025 -4.739,0.842 -4.452,-3.265c0.268,-3.839 9.139,-2.421 6.535,2.168c-0.622,1.096 -0.844,0.771 -2.083,1.097Zm77.21,-97.301c3.848,6.776 -3.342,7.015 -4.708,3.117c-0.842,-2.403 1.34,-6.075 4.708,-3.117Zm-81.655,102.429c-0.266,2.791 -0.719,3.264 -3.955,2.898c-3.857,-0.436 -4.33,-7.776 2.273,-5.177c1.426,0.561 1.244,0.801 1.681,2.279Zm26.413,-11.598c0.219,-0.19 1.827,-1.583 3.233,-1.64c2.047,-0.084 2.401,1.511 2.454,1.746c1.171,5.263 -9.401,7.068 -5.686,-0.106Zm-44.932,-117.931c-7.666,-0.998 -0.646,-8.903 2.669,-5.288c1.18,1.287 0.362,3.202 0.299,3.31c-0.947,1.619 -1.153,1.436 -2.968,1.978Zm58.141,118.38c-7.014,-1.038 -0.16,-9.805 2.858,-5.56c0.327,0.46 0.529,1.89 0.198,2.967c-0.537,1.744 -2.752,2.491 -3.055,2.593Zm-76.35,-5.663c-1.289,7.384 -10.84,-3.303 -4.696,-3.852c3.758,-0.336 4.589,3.378 4.696,3.852Zm-13.15,-13.304c0.965,0.021 2.382,-0.315 3.631,1.253c0.317,0.398 1.082,2.161 1.096,2.882c0.118,5.886 -11.237,-1.522 -4.727,-4.135Zm-4.577,-41.478c5.632,1.836 0.509,9.7 -2.892,5.031c-0.713,-0.98 -0.765,-3.343 -0.656,-3.702c0.585,-1.926 3.227,-1.331 3.548,-1.329Zm-2.306,-28.523c-1.197,6.768 -7.56,3.704 -5.476,-0.843c0.873,-1.905 4.922,-4.311 5.476,0.843Zm22.572,-30.53c-1.722,6.608 -8.866,3.352 -5.691,-0.791c1.325,-1.729 2.713,-1.852 2.994,-1.877c2.3,-0.205 2.369,0.392 2.697,2.668Zm56.885,-1.349c6.257,4.251 -1.783,7.81 -4.328,3.518c-0.154,-0.259 -0.871,-2.098 0.388,-3.201c0.912,-0.799 3.627,-0.367 3.939,-0.317Zm-22.149,4.885c-6.964,0.643 -3.6,-4.733 -2.98,-5.083c4.691,-2.645 7.744,2.704 2.98,5.083Zm24.429,-8.892c-0.018,-0.265 -0.179,-2.651 0.758,-3.228c0.26,-0.16 1.943,-1.196 3.805,-0.342c5.163,2.366 -1.425,9.071 -4.563,3.57Zm-11.665,119.951c-0.165,0.571 0.307,2.801 -4.303,2.896c-4.833,0.099 -2.303,-7.383 3.084,-5.21c1.339,0.54 0.903,0.921 1.219,2.315Zm-21.848,3.712c7.063,1.668 2.056,8.379 -1.461,5.371c-0.521,-0.446 -1.536,-2.742 -1.533,-3.727c0.006,-2.144 0.876,-1.689 2.994,-1.644Zm78.677,-63.316c-0.726,7.645 -8.642,0.655 -5.001,-2.715c1.035,-0.958 2.548,-0.498 2.762,-0.433c1.619,0.492 2.169,2.847 2.239,3.147Zm-130.4,-13.821c0.032,1.177 0.622,4.766 -2.58,5.215c-4.992,0.7 -2.637,-8.928 1.485,-6.555c0.915,0.527 1.058,1.295 1.095,1.339Zm61.597,-48.842c0.036,-1.984 -0.31,-2.466 1.564,-3.079c1.012,-0.331 3.52,-0.372 4.324,0.326c3.374,2.927 -3.431,8.046 -5.889,2.753Zm36.561,8.668c-0.317,-0.297 -3.964,-3.714 0.224,-5.434c4.698,-1.929 6.684,8.172 -0.224,5.434Zm-48.443,-6.433c0.004,-0.068 -0.296,-2.237 1.126,-3.146c0.261,-0.167 2.364,-1.512 3.843,-0.489c3.974,2.75 -2.386,9.212 -4.969,3.635Zm86.104,51.774c6.51,2.865 1.195,8.863 -2.019,5.302c-0.809,-0.896 -1.088,-2.698 -0.848,-3.477c0.574,-1.864 0.974,-1.622 2.868,-1.825Zm-46.868,65.219c0.737,-6.27 5.548,-3.273 5.627,-3.118c2.012,3.943 -4.012,8.343 -5.627,3.118Zm-14.365,9.03c0.345,-0.046 3.459,-0.459 4.323,0.43c0.454,0.467 0.702,1.77 0.355,2.774c-1.599,4.634 -10.333,0.374 -4.679,-3.205Zm-33.571,-1.049c-0.458,-0.068 -4.61,-0.686 -3.037,-4.923c1.57,-4.23 10.412,2.987 3.037,4.923Zm65.557,-9.529c0.036,-0.201 -0.117,-1.928 1.743,-2.924c0.781,-0.418 2.2,-0.309 2.829,0.142c4.531,3.245 -3.804,9.825 -4.572,2.781Zm11.714,-106.501c-0.372,-0.208 -4.244,-2.38 -1.62,-5.073c3.145,-3.228 9.943,6.26 1.62,5.073Zm8.308,38.036c7.67,2.238 0.204,8.434 -2.213,4.985c-2.673,-3.815 1.789,-4.884 2.213,-4.985Zm-3.045,-20.364c-0.439,-0.124 -4.31,-1.215 -3.663,-4.369c0.92,-4.483 11.794,2.211 3.663,4.369Zm0.697,43.731c0.637,-1.215 0.356,-1.522 1.657,-2.001c4.507,-1.657 5.371,6.389 0.68,6.032c-3.109,-0.237 -2.361,-3.551 -2.337,-4.031Zm-117.024,18.382c0.634,-5.272 5.02,-1.202 5.511,-0.027c1.729,4.14 -3.678,6.287 -5.511,0.027Zm25.393,-82.315c1.812,0.414 2.278,0.176 2.537,2.012c0.094,0.668 -0.094,2.6 -1.897,3.619c-3.539,2 -7.125,-3.728 -0.64,-5.631Zm99.06,73.136c0.05,-0.439 0.561,-4.923 4.061,-3.736c4.799,1.627 -1.635,10.385 -4.061,3.736Zm-55.545,-85.088c0.423,-0.001 4.923,-0.015 4.093,3.354c-1.288,5.231 -10.895,-1.034 -4.093,-3.354Zm-62.683,70.055c-1.397,-0.561 -1.649,-0.38 -2.181,-1.822c-1.904,-5.161 4.933,-5.945 5.203,-1.5c0.169,2.772 -0.279,3.135 -3.022,3.322Zm114.461,34.138c-0.135,0.431 -1.226,3.912 -4.345,3.602c-3.455,-0.343 -1.514,-7.784 2.928,-5.707c1.219,0.57 0.87,0.86 1.417,2.105Zm-125.652,-43.587c0.064,-0.285 -0.286,-2.047 2.14,-2.758c0.216,-0.063 1.733,-0.507 2.731,0.686c3.01,3.601 -3.403,9.384 -4.871,2.072Zm129.959,-9.543c-0.275,-0.333 -3.575,-4.324 0.558,-5.372c4.248,-1.077 6.348,8.247 -0.558,5.372Zm-105.163,-29.416c-0.843,6.897 -8.095,2.457 -5.361,-0.927c0.182,-0.225 1.342,-1.661 3.269,-1.558c1.899,0.101 2.088,2.472 2.092,2.485Zm93.866,91.714c-0.06,0.403 0.409,3.164 -3.489,3.029c-4.885,-0.169 -1.709,-7.99 2.239,-5.241c1.277,0.89 1.145,1.865 1.25,2.212Zm-97.43,-1.769c4.192,2.5 2.419,5.92 -2.354,4.806c-0.964,-0.225 -5.245,-5.999 2.354,-4.806Zm-10.296,-6.587c0,-0.078 -0.811,-2.683 1.831,-2.695c2.51,-0.012 3.469,1.674 3.632,1.961c1.895,3.329 -3.295,6.951 -5.463,0.735Zm15.282,17.675c-1.628,-4.738 2.278,-4.596 4.205,-3.324c3.284,2.167 0.386,8.132 -4.205,3.324Zm100.411,-86.855c0.419,0.089 4.563,0.965 3.265,4.236c-1.895,4.777 -10.321,-2.183 -3.265,-4.236Zm-111.505,-2.436c-7.042,-0.649 -1.763,-8.389 1.38,-5.547c1.24,1.121 0.859,2.718 0.802,2.956c-0.428,1.793 -0.569,1.773 -2.182,2.591Zm29.017,88.368c0.167,-0.413 1.948,-4.817 5.337,-1.565c3.205,3.075 -3.88,8.18 -5.337,1.565Zm-38.108,-83.231c1.559,-1.511 1.567,-2.121 3.579,-1.367c0.007,0.002 1.348,0.636 1.619,2.057c0.796,4.178 -6.966,6.464 -5.198,-0.69Zm119.584,56.44c0.051,-0.189 0.029,-1.733 1.852,-2.901c0.19,-0.122 1.523,-0.977 2.82,0.115c4.031,3.393 -4.33,9.177 -4.672,2.787Zm-1.349,-6.161c-6.857,2.995 -5.84,-5.6 -1.475,-5.073c4.199,0.507 1.691,4.71 1.475,5.073Zm-65.707,38.178c-6.934,1.528 -5.483,-5.268 -1.505,-4.953c0.249,0.02 2.188,0.173 2.793,1.4c0.961,1.947 0.154,1.955 -1.289,3.553Zm-55.88,-74.609c-0.994,-1.504 -1.166,-1.552 -0.635,-3.228c0.547,-1.727 2.28,-1.954 2.366,-1.97c4.261,-0.828 4.01,8.515 -1.731,5.198Zm38.872,65.57c-2.276,7.311 -8.827,-1.741 -4.312,-3.008c2.966,-0.832 4.173,2.611 4.312,3.008Zm-12.943,-4.416c-2.728,-3.995 1.464,-4.626 2.598,-4.356c4.586,1.088 2.433,8.06 -2.598,4.356Zm17.86,-101.607c0.253,-0.034 2.375,-0.317 3.173,0.278c4.011,2.995 -2.92,6.802 -4.465,3.902c-1.201,-2.256 -0.524,-2.428 1.292,-4.18Zm60.285,0.136c6.283,1.995 0.939,7.583 -2.117,4.801c-0.618,-0.563 -1.39,-1.503 -0.887,-2.843c0.695,-1.852 1.101,-1.528 3.004,-1.958Zm-85.271,94.216c-1.565,-5.934 3.182,-4.206 3.33,-4.108c4.617,3.047 0.174,7.712 -3.33,4.108Zm91.426,-88.235c0.403,0.053 4.16,0.545 3.623,3.561c-0.77,4.324 -10.576,-0.236 -3.623,-3.561Zm-98.616,72.157c-0.325,-0.098 -2.516,0.033 -2.574,-2.82c-0.022,-1.058 0.168,-2.303 1.86,-2.78c2.428,-0.685 6.919,4.396 0.714,5.601Zm27.28,-70.884c-2.989,6.287 -8.073,0.109 -4.507,-2.481c0.157,-0.114 0.869,-0.631 2.395,-0.345c2.021,0.379 1.901,0.809 2.112,2.826Zm-20.152,19.892c-1.267,7.754 -8.009,-0.156 -4.712,-2.075c3.419,-1.99 4.587,1.682 4.712,2.075Zm2.804,-4.579c-6.512,-1.052 -0.301,-8.823 2.289,-4.576c1.678,2.75 -1.918,4.405 -2.289,4.576Zm-12.24,40.262c0.1,0.019 1.902,-0.301 2.432,1.743c0.061,0.236 0.579,2.227 -0.184,3.045c-3.073,3.291 -8.494,-3.39 -2.248,-4.788Zm109,20.197c0.138,6.231 -7.859,3.378 -4.861,-0.703c2.497,-3.398 4.665,0.362 4.861,0.703Zm-103.15,-46.733c-2.756,5.261 -7.966,0.17 -4.767,-2.68c1.048,-0.934 2.555,-0.455 2.768,-0.387c1.969,0.626 1.661,1.067 1.999,3.067Zm3.514,48.167c-0.983,6.03 -8.286,0.06 -4.922,-2.492c0.798,-0.606 2.221,-0.403 2.415,-0.375c1.728,0.247 2.421,2.575 2.508,2.867Zm-13.975,-12.2c0.152,6.099 -7.784,1.233 -5.016,-2.048c0.86,-1.019 2.615,-0.59 2.839,-0.535c2.026,0.496 2.119,2.43 2.177,2.583Zm97.143,25.242c0.303,-0.25 4.289,-3.533 4.866,0.67c0.603,4.393 -6.948,5.487 -4.866,-0.67Zm-3.595,7.687c-2.393,5.379 -7.894,0.304 -4.04,-2.283c2.822,-1.894 4.081,-1.092 4.04,2.283Zm17.416,-81.21c4.157,5.251 -4.267,6.027 -4.639,1.645c-0.042,-0.489 0.549,-4.018 4.639,-1.645Zm-6.253,70.701c-0.363,-0.162 -3.963,-1.776 -1.395,-4.768c2.92,-3.403 8.101,3.453 1.395,4.768Zm-100.09,-53.025c0.41,0.072 4.046,0.713 2.357,4.641c-1.337,3.11 -8.884,-0.462 -2.357,-4.641Zm98.596,-21.4c-1.497,-0.364 -1.804,-0.021 -2.462,-1.401c-0.101,-0.213 -0.843,-1.77 0.391,-2.918c3.139,-2.92 8.677,3.541 2.071,4.32Zm12.407,16.399c-5.849,1.99 -5.018,-5.643 -0.994,-4.619c4.568,1.163 1.266,4.356 0.994,4.619Zm-94.426,-24.864c0.95,-1.371 0.887,-1.678 2.544,-1.607c0.187,0.008 1.418,0.061 2.079,1.069c2.327,3.549 -5.271,7.123 -4.622,0.538Z" style="fill:#515151;"/><path d="M12.288,155.654c-0.281,1.149 -3.294,13.452 -4.346,14.139c-6.418,4.194 6.701,-38.307 7.697,-41.536c0.47,-1.523 29.019,-89.165 34.384,-101.555c1.544,-3.567 3.241,-7.369 7.25,-5.729c1.411,0.577 3.547,3.708 5.251,1.384c0.794,-1.084 2.686,-6.803 9.185,-5.239c3.216,0.774 3.723,4.748 8.913,5.186c13.918,1.175 10.941,15.594 14.323,29.387c5.31,21.656 2.692,22.205 4.852,37.039c0.377,2.587 1.304,3.994 2.796,1.831c11.303,-16.388 42.728,-50.309 54.1,-64.338c9.959,-12.285 12.271,-13.55 17.384,-12.747c2.143,0.336 1.1,2.117 3.204,2.524c3.558,0.688 0.635,5.114 4.794,5.07c0.142,-0.001 4.943,-0.97 6.189,3.261c0.498,1.688 -0.778,7.891 1.92,7.412c0.067,-0.012 3.304,-3.184 3.63,-0.94c0.078,0.535 -0.927,8.025 -2.513,13.688c-0.981,3.502 -0.465,3.605 -2.546,10.455c-20.85,68.626 -17.51,69.372 -19.348,81.313c-2.069,13.438 -2.853,15.62 -3.32,16.918c-3.195,8.889 -3.037,16.958 -5.012,14.524c-1.107,-1.364 3.31,-18.71 2.264,-19.274c-0.2,-0.108 -0.407,0.246 -0.635,0.249c-0.329,0.004 -0.571,-0.454 -0.853,0.36c-4.115,11.903 -3.394,30.657 -6.175,26.506c-2.187,-3.264 1.555,-29.036 0.569,-29.585c-1.737,-0.967 -2.126,3.803 -3.236,10.385c-1.269,7.522 -1.116,7.514 -2.295,12.909c-0.142,0.65 -1.068,4.888 -1.417,8.195l-1.556,-0.411c0.049,-4.323 0.034,-4.416 -0.289,-4.592c-3.794,-2.061 0.079,17.144 -2.676,21.593c-1.68,2.714 -2.491,-1.939 -4.182,-5.258c-3.282,-6.444 -2.827,-26.361 -3.892,-26.479c-0.225,-0.025 -0.329,0.418 -0.554,0.393l-0.72,0.154c-1.26,6.465 -0.475,11.09 -1.862,11.718c-2.041,0.924 -1.022,-1.036 -2.459,-15.77c-1.122,-11.502 7.371,-54.443 12.126,-65.307c0.985,-2.25 -0.743,-3.047 -1.505,-1.64c-4.006,7.402 -11.299,15.74 -18.749,25.623c-15.699,20.825 -15.54,21.023 -17.197,26.079c-0.309,0.943 -1.926,5.876 -12.224,2.08c-4.303,-1.587 -4.388,-0.958 -8.94,-0.854c-4.608,0.106 -5.896,-11.616 -8.073,-11.62c-1.775,-0.004 -2.032,0.014 -2.6,-1.693c-4.688,-14.101 -7.298,-41.336 -7.924,-41.863c-1.752,-1.474 -1.429,0.863 -12.359,33.61c-3.847,11.526 -1.868,12.059 -6.081,23.485c-8.172,22.161 -7.27,33.866 -10.03,36.697c-4.429,4.543 -8.358,-3.126 -11.66,-1.893c-0.689,0.257 -4.652,1.737 -8.947,2.089c-9.92,0.813 -2.545,-27.147 -2.775,-27.966c-0.044,-0.155 -0.44,0.131 -0.484,-0.024c-0.284,-0.134 -0.38,-0.534 -0.664,-0.668c-0.075,-0.035 -0.052,0.051 -0.738,0.724Zm21.431,-64.463c-1.179,-0.647 -1.157,-0.7 -1.273,-0.699c-0.217,0.001 -0.602,1.428 -0.637,1.558c-0.205,0.758 -2.48,9.193 -2.396,9.517c0.892,3.441 4.523,-3.304 4.306,-10.377Zm59.996,-18.638c-1.351,-8.688 -1.788,-8.859 -2.647,-8.8c-1.312,0.09 -0.552,3.674 -0.516,3.988c1.213,10.571 1.289,10.912 2.181,10.954c2.416,0.115 1.161,-4.873 0.982,-6.142Zm37.632,-2.365c7.154,-8.602 7.208,-8.708 7.155,-9.669c-0.182,-3.286 -5.796,4.514 -5.852,4.581c-4.497,5.344 -8.896,10.544 -8.448,11.489c0.807,1.703 1.995,-0.103 7.145,-6.401Z" style="fill:#ffcb03;"/></g></g></svg>